<svg width="800" height="721" viewBox="0 0 800 721" fill="none" xmlns="http://www.w3.org/2000/svg">
<path fill-rule="evenodd" clip-rule="evenodd" d="M191.362 109.887C180.562 88.7874 177.152 70.5274 182.032 48.1474C191.952 2.46742 226.892 -9.33257 268.282 6.93743C286.742 14.1774 301.882 26.4874 315.132 40.7974C369.794 23.9535 428.597 26.5218 481.582 48.0674L485.642 49.0674C502.272 29.1274 529.152 13.8974 554.232 10.6674C589.002 6.17742 622.772 14.1374 625.922 55.1274C627.052 69.8574 622.132 87.9174 615.842 101.197L605.432 123.197L602.762 122.317C609.702 134.317 615.662 146.317 619.222 157.017C624.332 172.337 630.732 196.887 625.972 213.127L625.052 216.277L623.602 218.787C620.452 224.547 616.872 236.137 619.092 242.497C628.092 268.227 621.912 302.737 605.182 324.257C602.964 327.104 600.534 329.778 597.912 332.257C596.062 337.497 593.832 343.527 591.442 350.137C591.612 351.137 591.742 352.137 591.862 353.207C609.932 352.007 627.082 353.977 644.192 365.127C644.192 365.127 609.382 364.877 592.312 367.127C592.206 369.294 592.022 371.464 591.762 373.637C612.862 378.297 631.832 386.117 647.462 404.707C647.462 404.707 607.672 392.367 588.462 389.407C584.822 401.407 578.742 412.407 570.462 420.667C568.543 430.054 567.327 439.57 566.822 449.137C573.491 451.11 580.375 452.262 587.322 452.567C630.322 453.907 664.702 435.567 664.702 435.567C650.152 621.037 368.332 628.067 243.332 556.277C80.0722 462.547 74.0522 244.367 191.332 109.847" fill="#0F111A"/>
<path fill-rule="evenodd" clip-rule="evenodd" d="M483.592 395.977C483.592 395.977 469.962 394.407 447.412 402.267C424.862 410.127 413.312 415.377 400.732 412.757C388.152 410.137 383.422 398.597 383.422 398.597C383.422 398.597 393.422 391.247 412.272 388.107C431.122 384.967 451.602 383.917 451.602 383.917C451.602 383.917 418.602 378.677 403.882 379.727C389.162 380.777 381.322 384.447 381.322 384.447C381.322 384.447 378.182 376.057 382.902 371.857C387.622 367.657 405.972 364.517 419.082 364.517C427.151 364.531 435.21 365.056 443.212 366.087C443.212 366.087 421.702 356.087 404.922 355.087C388.142 354.087 380.272 356.147 380.272 356.147C380.272 356.147 383.422 347.237 390.272 344.147C397.122 341.057 402.342 340.467 411.272 343.087C420.202 345.707 432.772 351.477 432.772 351.477C432.772 351.477 415.992 336.787 407.072 334.697C402.093 333.468 396.998 332.764 391.872 332.597L402.352 322.107C402.352 322.107 386.632 321.587 371.412 338.367C356.192 355.147 359.822 381.807 359.822 381.807C359.822 381.807 351.422 372.377 318.912 354.547C286.402 336.717 279.052 319.417 276.422 298.427C273.792 277.437 278.002 264.337 278.002 264.337C278.002 264.337 246.362 283.337 237.452 326.337C214.272 438.087 246.532 476.337 289.372 531.687C305.372 552.417 238.842 512.387 217.522 490.687C129.802 401.287 107.272 226.687 248.682 115.287C248.682 115.287 268.982 101.287 253.952 78.7375C238.922 56.1875 230.332 50.7475 222.822 58.2775C215.312 65.8075 218.532 103.357 218.532 103.357C218.532 103.357 203.532 78.6775 208.872 53.9875C214.212 29.2975 228.192 20.7075 258.252 32.5075C288.312 44.3075 311.922 79.7375 322.652 94.7675C333.382 109.797 334.462 113.027 334.462 113.027L331.242 77.5975C331.242 77.5975 346.242 67.9375 413.892 67.9375C481.542 67.9375 516.942 90.4775 516.942 90.4775L504.062 70.0775C504.062 70.0775 524.462 42.1575 557.742 37.8675C591.022 33.5775 597.462 43.2475 598.532 57.1975C599.602 71.1475 591.012 89.3975 591.012 89.3975C591.012 89.3975 596.372 62.5675 580.272 63.6375C564.172 64.7075 550.222 93.6975 550.222 93.6975C550.222 93.6975 583.502 136.637 593.162 165.607C602.822 194.577 599.602 205.327 599.602 205.327C599.602 205.327 585.652 230.017 593.162 251.477C600.672 272.938 591.002 297.637 583.492 307.297C575.982 316.957 569.542 318.027 569.542 318.027L538.412 310.517C538.412 310.517 551.292 320.187 562.032 345.937C569.492 363.837 563.472 385.367 553.712 397.557C552.122 417.697 545.112 439.117 532.392 451.837C535.452 439.607 535.282 422.697 532.812 407.247C517.582 406.107 499.812 396.387 499.812 396.387C499.812 396.387 500.882 379.217 518.062 367.387C535.242 355.557 531.942 334.967 540.612 328.747C549.282 322.527 530.942 334.117 500.882 337.337C470.822 340.557 446.142 328.747 446.142 328.747C446.142 328.747 446.142 342.697 461.142 353.437C476.142 364.177 499.822 396.387 483.592 395.977Z" fill="#F2F2F2"/>
<path fill-rule="evenodd" clip-rule="evenodd" d="M152.292 365.667C134.192 281.397 158.022 186.667 248.692 115.217C248.692 115.217 264.512 104.287 257.862 86.2173C261.282 90.2173 262.652 86.3973 267.612 111.897C272.572 137.397 193.822 182.777 169.822 267.177C145.822 351.577 153.422 347.337 152.332 365.667" fill="white"/>
<path fill-rule="evenodd" clip-rule="evenodd" d="M516.882 90.3675V90.2975L516.992 90.3675H516.882ZM332.772 94.3675L331.242 77.5975C331.242 77.5975 346.242 67.9375 413.892 67.9375C478.722 67.9375 513.952 88.6375 516.762 90.3575C454.592 84.2775 400.692 77.1375 332.822 94.3575L332.772 94.3675Z" fill="white"/>
<path fill-rule="evenodd" clip-rule="evenodd" d="M516.952 90.4673L504.062 70.0773C504.062 70.0773 524.462 42.1573 557.742 37.8673C588.842 33.8673 596.502 42.0373 598.242 54.5173C567.082 50.8173 539.062 70.7573 516.952 90.4673Z" fill="white"/>
<path fill-rule="evenodd" clip-rule="evenodd" d="M219.882 32.3776C227.952 25.6776 240.192 25.3776 258.252 32.4976C288.312 44.3076 311.922 79.7276 322.652 94.7576C332.382 108.388 334.172 112.308 334.432 112.918L304.362 113.078C304.362 113.078 294.822 86.8576 255.822 51.9276C241.582 39.1676 229.502 33.9276 219.902 32.3776" fill="white"/>
<path fill-rule="evenodd" clip-rule="evenodd" d="M444.392 272.747C444.392 272.747 434.472 223.137 425.002 215.027C415.532 206.917 378.552 190.277 361.422 193.387C344.292 196.497 337.972 214.577 337.972 214.577C337.972 214.577 351.502 221.337 361.422 228.577C371.342 235.817 374.042 240.297 388.922 243.007C397.904 244.625 407.127 244.318 415.982 242.107C415.982 242.107 428.602 268.707 444.392 272.767" fill="#0F111A"/>
<path fill-rule="evenodd" clip-rule="evenodd" d="M527.822 270.037C527.822 270.037 514.752 220.437 515.652 215.927C516.552 211.417 535.492 201.047 546.762 198.797C558.032 196.547 565.252 195.187 572.912 202.407C575.154 204.532 576.885 207.136 577.978 210.024C579.071 212.913 579.496 216.011 579.222 219.087C574.491 220.43 570.154 222.896 566.582 226.277C561.172 231.677 556.202 242.047 548.092 244.277C543.257 245.635 538.213 246.093 533.212 245.627L527.822 270.037Z" fill="#0F111A"/>
<path fill-rule="evenodd" clip-rule="evenodd" d="M401.492 236.737C415.612 236.997 421.752 227.067 421.752 227.067L414.822 224.717C414.822 224.717 405.682 229.547 401.102 227.197C396.522 224.847 394.312 219.197 394.312 219.197L378.502 216.847C382.332 226.737 389.862 236.487 401.502 236.707" fill="#F11012"/>
<path fill-rule="evenodd" clip-rule="evenodd" d="M545.212 230.007C534.132 231.667 528.282 224.477 528.282 224.477L533.492 221.917C533.492 221.917 541.182 224.787 544.542 222.467C547.902 220.147 549.072 215.467 549.072 215.467L561.272 211.997C559.272 220.177 554.342 228.617 545.212 229.997" fill="#F11012"/>
<path fill-rule="evenodd" clip-rule="evenodd" d="M337.972 214.577C337.972 214.577 363.282 252.227 388.832 262.577C414.382 272.927 444.392 272.737 444.392 272.737C428.602 268.677 415.982 242.077 415.982 242.077C407.127 244.288 397.904 244.595 388.922 242.977C374.042 240.267 371.342 235.767 361.422 228.547C351.502 221.327 337.972 214.547 337.972 214.547V214.577ZM521.142 386.547L544.142 394.297C551.24 385.897 554.898 375.123 554.382 364.137C553.552 345.597 548.012 338.137 548.012 338.137C548.012 338.137 548.012 353.907 538.332 361.937C528.652 369.967 521.142 386.547 521.142 386.547ZM399.062 325.277L402.302 322.037C402.302 322.037 386.572 321.517 371.362 338.297C356.152 355.077 359.822 381.817 359.822 381.817C359.822 381.817 351.442 372.377 318.922 354.547C286.402 336.717 279.062 319.417 276.432 298.437C273.802 277.457 278.012 264.337 278.012 264.337C165.422 352.457 288.482 549.037 440.182 568.637C296.822 564.997 185.032 511.437 152.752 366.517C181.162 309.187 261.622 214.277 320.722 212.827C320.722 212.827 284.502 262.277 309.532 290.017C337.652 321.177 363.442 288.777 403.052 321.627L399.062 325.277ZM446.332 402.657C428.812 408.827 394.442 425.537 383.422 398.607C383.422 398.607 393.422 391.267 412.272 388.117C431.122 384.967 451.602 383.927 451.602 383.927C451.602 383.927 418.602 378.687 403.882 379.737C389.162 380.787 381.332 384.447 381.332 384.447C381.332 384.447 378.182 376.067 382.902 371.867C387.622 367.667 405.972 364.527 419.082 364.527C427.151 364.541 435.21 365.066 443.212 366.097C443.212 366.097 421.702 356.097 404.922 355.097C388.142 354.097 380.272 356.097 380.272 356.097C380.272 356.097 383.422 347.187 390.272 344.037C397.122 340.887 402.342 340.367 411.272 343.037C414.422 344.037 417.722 345.377 420.922 346.427C424.172 348.047 429.112 349.747 432.762 351.427L431.832 350.637C442.102 355.077 451.492 360.237 451.492 360.237C451.492 360.237 441.852 356.667 435.252 341.497C428.782 326.637 434.032 308.627 434.252 307.897C435.252 303.897 443.082 293.667 445.932 290.507C444.482 315.987 442.342 341.717 461.182 353.507C477.342 363.607 499.822 396.437 483.642 396.027C483.642 396.027 470.012 394.457 447.462 402.317L446.332 402.657ZM549.672 301.457L567.672 306.997C567.672 306.997 578.762 297.657 583.952 286.577C589.142 275.497 586.712 266.847 586.712 266.847C586.712 266.847 561.822 299.027 549.672 301.447V301.457ZM563.302 230.127C561.642 235.597 556.852 247.377 547.432 254.727L527.822 270.037L533.232 245.687C538.233 246.153 543.277 245.695 548.112 244.337L548.412 244.247H548.492L548.712 244.177L548.862 244.117L549.012 244.067L549.232 243.987H549.302L549.592 243.877L549.872 243.747H549.942L550.152 243.647L550.302 243.577L550.432 243.517L550.652 243.407H550.712L550.992 243.257L551.252 243.107H551.342L551.532 242.997L551.682 242.897L551.802 242.827L552.012 242.687L552.282 242.507L552.522 242.337L552.602 242.277L552.782 242.147L552.932 242.037L553.042 241.957L553.252 241.787L553.512 241.587L553.742 241.397L553.832 241.327L553.992 241.187L554.142 241.057L554.242 240.977L554.452 240.777L554.822 240.277L555.032 240.077L555.122 239.997L555.272 239.847L555.422 239.697L555.512 239.617L555.712 239.407L555.952 239.167L556.152 238.947L556.242 238.857L556.382 238.707L556.532 238.537L556.612 238.457L556.822 238.227L557.052 237.967L557.242 237.757L557.342 237.647L557.472 237.497L557.622 237.327L557.692 237.237L557.902 236.987L558.122 236.737V236.677L558.302 236.467L558.402 236.347L558.512 236.197L558.662 236.007L558.732 235.927L558.932 235.677L559.142 235.407V235.347L559.312 235.147L559.412 235.017L559.522 234.867L559.672 234.677L559.732 234.597L559.942 234.327L560.142 234.057V233.987L560.302 233.777L560.412 233.647L560.512 233.507L560.672 233.307V233.237L560.872 232.967L561.082 232.697L561.132 232.627L561.282 232.427L561.392 232.287L561.482 232.157L561.642 231.947V231.887L561.842 231.627L562.042 231.367L562.102 231.297L562.252 231.107L562.352 230.967L562.452 230.847L562.602 230.637L563.302 230.127Z" fill="#E6E6E6"/>
<path d="M779.349 505.587L777.519 503.165C767.4 489.805 753.107 482.455 733.84 480.718C672.724 475.163 626.758 500.886 586.223 523.59C578.934 527.664 571.93 531.51 565.041 535.241C515.359 561.592 468.621 583.299 399.93 582.871H397.071C329.552 582.871 283.329 561.307 234.133 535.241C227.129 531.51 220.24 527.635 212.922 523.562C172.387 500.772 126.421 475.134 65.3337 480.831C46.0669 482.569 31.774 489.919 21.6547 503.279L19.8252 505.7L20.2826 508.549C23.1411 527.493 22.5694 548.431 21.912 568.742C21.5403 580.421 21.1973 591.531 21.4832 601.986L21.6547 607.911L27.5433 608.823C32.7174 609.62 37.5769 607 42.265 604.493C44.8351 602.94 47.6046 601.743 50.4977 600.932C56.2533 600.277 62.065 600.277 67.8207 600.932C92.433 603.353 120.133 616.771 146.374 630.302L152.406 633.407C220.754 668.645 297.993 705.621 386.809 717.187L408.248 717.728C498.722 706.874 577.362 669.3 646.768 633.378L652.771 630.302C679.013 616.771 706.684 603.353 731.325 600.932C737.081 600.292 742.891 600.292 748.647 600.932C751.541 601.743 754.31 602.94 756.88 604.493C761.568 607 766.428 609.62 771.602 608.823L777.49 607.911L777.662 601.986C777.948 591.417 777.662 580.421 777.233 568.742C776.576 548.488 775.89 527.493 778.863 508.549L779.349 505.587Z" fill="white"/>
<path fill-rule="evenodd" clip-rule="evenodd" d="M36.4902 613.296C39.7204 632.866 66.0765 632.923 84.1427 640.814C101.094 648.22 118.446 658.875 127.907 670.924C135.483 680.496 149.776 709.866 125.335 712.857C166.212 720.178 146.431 663.319 149.804 635.572C124.22 623.152 67.077 587.743 36.4902 613.296Z" fill="white"/>
<path fill-rule="evenodd" clip-rule="evenodd" d="M37.777 634.148C32.7459 655.684 18.8532 668.189 12.0498 687.874C45.2379 655.513 91.3753 705.593 129.251 702.288C122.762 655.199 73.3091 651.838 37.777 634.148Z" fill="white"/>
<path fill-rule="evenodd" clip-rule="evenodd" d="M762.74 613.296C759.51 632.866 733.125 632.923 715.088 640.814C698.108 648.22 680.785 658.875 671.323 670.924C663.748 680.496 649.426 709.866 673.896 712.857C633.018 720.178 652.799 663.319 649.426 635.572C675.096 623.152 732.239 587.743 762.74 613.296Z" fill="white"/>
<path fill-rule="evenodd" clip-rule="evenodd" d="M761.54 634.148C766.571 655.684 780.464 668.189 787.267 687.874C754.079 655.513 707.97 705.593 670.065 702.288C676.554 655.199 726.008 651.838 761.54 634.148Z" fill="white"/>
<path fill-rule="evenodd" clip-rule="evenodd" d="M799.902 694.397C796.529 668.759 773.832 656.14 771.86 632.951C771.088 623.978 778.406 614.464 779.578 604.123C781.007 591.674 778.634 573.556 778.291 554.356C778.006 538.261 784.009 519.317 780.864 505.929C778.634 496.158 762.312 486.13 752.536 482.342C722.092 470.52 681.557 480.661 653.4 490.204C565.871 519.887 512.472 580.878 399.759 580.593C287.045 580.878 233.647 519.887 146.117 490.204C117.961 480.661 77.5117 470.52 46.9821 482.342C37.2058 486.13 20.8833 496.158 18.6536 505.929C15.5663 519.374 21.5122 538.318 21.2263 554.356C20.8833 573.556 18.5107 591.674 19.9114 604.123C21.112 614.464 28.4871 624.064 27.6581 632.951C25.8 654.772 5.58992 667.364 0.387312 689.925C-0.0811658 691.993 -0.125139 694.134 0.258033 696.22C0.641204 698.305 1.44361 700.292 2.617 702.06C3.19615 702.895 3.98349 703.565 4.90144 704.004C5.81939 704.443 6.83627 704.636 7.85189 704.564C8.8675 704.492 9.8468 704.158 10.6933 703.594C11.5398 703.03 12.2242 702.256 12.6792 701.348C15.6164 695.467 20.4335 690.727 26.3718 687.874C67.5352 672.064 107.098 731.459 142.258 719.21C169.701 709.723 155.494 667.762 157.695 640.614C226.3 673.716 301.024 712.059 398.415 720.378H402.56H402.96C499.495 711.831 573.617 673.659 641.937 640.757C644.138 667.905 629.903 709.866 657.374 719.352C692.534 731.487 732.068 672.092 773.26 688.016C778.446 690.493 782.767 694.462 785.667 699.411C786.349 700.524 787.303 701.446 788.439 702.094C789.574 702.742 790.856 703.093 792.164 703.116C793.472 703.138 794.766 702.832 795.923 702.224C797.081 701.616 798.066 700.727 798.787 699.639C799.805 698.093 800.203 696.222 799.902 694.397ZM12.0789 687.959C18.8823 668.275 32.775 655.769 37.8061 634.233C73.3382 651.838 122.792 655.2 129.28 702.374C91.3758 705.678 45.2384 655.598 12.0503 687.959H12.0789ZM125.278 712.857C149.719 710.008 135.426 680.496 127.851 670.924C118.304 658.874 101.038 648.135 84.0864 640.814C66.0202 632.923 39.6641 632.866 36.4339 613.296C67.0207 587.657 124.164 623.152 149.748 635.572C146.432 663.318 166.213 720.178 125.278 712.857ZM402.246 713.883C401.837 713.912 401.426 713.912 401.017 713.883H397.786H396.672C302.882 703.827 222.298 661.182 149.748 623.807C124.821 610.96 95.2348 596.317 68.6215 593.668C62.2104 592.941 55.7372 592.941 49.3261 593.668C41.8367 595.007 33.947 602.214 28.7158 601.53C27.8868 572.559 32.2033 537.691 27.4294 507.211C36.5483 495.189 49.126 489.093 66.0488 487.583C135.226 481.288 183.25 516.07 230.874 541.281C280.671 567.688 327.866 589.879 397.786 589.708H401.817C471.509 589.708 518.647 567.66 568.329 541.281C616.067 515.928 663.977 481.288 733.154 487.583C750.077 489.093 762.655 495.189 771.774 507.211C767 537.691 771.316 572.559 770.487 601.53C765.256 602.328 757.367 595.007 749.877 593.668C743.466 592.941 736.993 592.941 730.582 593.668C703.94 596.317 674.382 610.96 649.455 623.807C576.933 661.21 496.236 703.884 402.303 713.911L402.246 713.883ZM649.455 635.572C675.04 623.152 732.154 587.743 762.769 613.296C759.539 632.866 733.154 632.923 715.117 640.814C698.137 648.22 680.814 658.874 671.352 670.924C663.777 680.496 649.455 709.866 673.925 712.857C633.104 720.178 652.886 663.318 649.513 635.572H649.455ZM670.123 702.516C676.555 655.342 726.008 651.981 761.597 634.376C766.628 655.912 780.521 668.418 787.325 688.102C754.165 655.598 707.97 705.678 670.123 702.516Z" fill="black"/>
<path d="M141.486 527.55C141.445 528.024 141.219 528.464 140.857 528.775C140.518 529.106 140.073 529.307 139.6 529.345C138.313 529.345 137.055 529.573 135.798 529.63C134.522 529.7 133.243 529.7 131.967 529.63C130.652 534.928 129.423 539.6 128.251 543.702C127.079 547.804 125.936 551.422 124.792 554.612C123.649 557.803 122.591 560.68 121.505 563.159C120.419 565.637 119.304 567.973 118.16 570.081C117.017 572.189 115.845 574.24 114.616 576.149C113.386 578.057 112.1 580.023 110.728 582.045C110.525 582.313 110.26 582.528 109.956 582.672C109.641 582.839 109.282 582.908 108.927 582.871C108.576 582.852 108.235 582.745 107.935 582.561C107.636 582.377 107.387 582.121 107.212 581.817C105.868 579.311 104.668 576.832 103.639 574.354C102.61 571.875 101.695 569.54 100.78 567.261C99.8654 564.982 99.3223 562.874 98.7506 560.851C98.1789 558.829 97.7215 557.062 97.3499 555.467C95.2917 559.797 93.2049 563.814 91.0896 567.574C88.9921 571.304 86.6923 574.918 84.2004 578.399C83.9902 578.693 83.7167 578.936 83.4 579.111C83.0666 579.286 82.6878 579.355 82.3138 579.311C81.9539 579.28 81.61 579.149 81.3217 578.932C81.0334 578.716 80.8125 578.422 80.6844 578.086C78.8698 574.275 77.2945 570.355 75.9677 566.349C74.6814 562.389 73.5951 558.572 72.7375 554.954C71.88 551.336 71.1939 547.662 70.6794 544.272C70.1648 540.882 69.7932 537.805 69.5359 535.014C69.2787 532.222 69.1071 529.772 69.05 527.692C68.9928 525.613 69.05 524.046 69.05 522.907L67.1633 522.536L65.3338 522.194C64.8409 522.056 64.4128 521.749 64.1252 521.327C63.8375 520.904 63.7088 520.395 63.7616 519.887C63.8707 519.342 64.1757 518.856 64.6192 518.52C65.0194 518.218 65.5223 518.085 66.0199 518.149H66.1914C69.1754 518.788 72.1904 519.273 75.2245 519.602C77.7115 519.887 80.1984 520.058 82.6854 520.143C85.1723 520.229 87.6307 520.143 90.0033 520.143H90.3178C90.5926 520.165 90.8597 520.245 91.1012 520.378C91.3427 520.51 91.5531 520.693 91.7185 520.913C91.8834 521.108 92.0065 521.336 92.0802 521.581C92.1539 521.826 92.1767 522.083 92.1473 522.337C92.105 522.836 91.8814 523.302 91.5184 523.647C91.1526 523.99 90.6763 524.192 90.1748 524.217H86.6016C85.401 524.217 84.1718 524.217 82.9141 524.217C82.9141 525.186 82.9141 526.467 82.9141 528.063C82.9141 529.63 82.9141 531.453 83.1999 533.447C83.4858 535.441 83.5429 537.663 83.8288 540.027C84.1147 542.392 84.4577 544.842 84.9436 547.405C85.4296 549.969 85.9727 552.533 86.6302 555.182C87.2877 557.831 88.0881 560.452 89.0028 563.016C90.5465 560.31 91.8614 557.518 93.405 554.669C94.9487 551.821 96.0921 548.972 97.2355 546.123C98.3789 543.275 99.4366 540.426 100.351 537.349C101.251 534.424 101.967 531.447 102.495 528.433C102.597 527.946 102.871 527.511 103.267 527.208C103.645 526.9 104.122 526.738 104.611 526.752C105.113 526.786 105.584 527.011 105.926 527.379C106.287 527.718 106.519 528.171 106.583 528.661C106.783 531.709 107.126 534.757 107.555 537.834C107.984 540.91 108.584 544.015 109.299 547.206C110.013 550.396 110.842 553.615 111.814 556.891C112.786 560.167 113.901 563.586 115.13 567.061C116.131 565.153 117.131 563.045 117.989 560.709C118.846 558.373 119.961 555.752 120.847 552.732C121.733 549.713 122.934 546.323 124.049 542.506C125.164 538.688 126.307 534.301 127.536 529.373C126.364 529.202 125.221 529.003 124.078 528.746C122.934 528.49 121.791 528.205 120.59 527.863C120.134 527.741 119.737 527.458 119.475 527.066C119.194 526.679 119.072 526.2 119.132 525.727C119.152 525.431 119.239 525.144 119.388 524.887C119.537 524.63 119.743 524.411 119.99 524.246C120.407 523.981 120.896 523.852 121.39 523.875H121.762C124.294 524.614 126.886 525.129 129.509 525.413C131.046 525.594 132.592 525.689 134.14 525.698C135.706 525.711 137.272 525.626 138.828 525.442H139.571C140.117 525.517 140.616 525.791 140.972 526.211C141.309 526.575 141.493 527.055 141.486 527.55Z" fill="black" stroke="black" stroke-width="0.5" stroke-miterlimit="10"/>
<path d="M212.693 555.781C212.52 556.358 212.144 556.853 211.635 557.177C211.233 557.425 210.764 557.544 210.292 557.519C208.862 557.234 207.433 556.949 206.175 556.636C204.917 556.322 203.602 555.952 202.316 555.553C201.773 556.607 200.858 558.402 199.658 560.709C198.457 563.017 196.971 566.093 195.313 569.654C193.655 573.215 191.797 577.231 189.767 581.761C187.737 586.29 185.708 591.247 183.592 596.546L182.163 599.964C183.364 600.448 184.564 600.961 185.736 601.502C186.908 602.043 188.08 602.613 189.31 603.24C189.781 603.507 190.13 603.946 190.282 604.465C190.451 604.964 190.451 605.504 190.282 606.003C190.167 606.236 190.006 606.445 189.81 606.616C189.614 606.787 189.385 606.918 189.138 607C188.667 607.17 188.151 607.17 187.68 607C186.337 606.345 185.022 605.69 183.707 605.092C182.392 604.493 181.106 603.952 179.791 603.411C178.476 602.87 177.189 602.414 175.874 601.987L171.987 600.79H171.729C171.466 600.696 171.227 600.546 171.029 600.349C170.831 600.152 170.68 599.913 170.586 599.651C170.48 599.413 170.425 599.156 170.425 598.896C170.425 598.636 170.48 598.378 170.586 598.141C170.767 597.672 171.127 597.293 171.586 597.087C171.805 596.961 172.047 596.881 172.298 596.852C172.548 596.822 172.802 596.844 173.044 596.916L175.903 597.799L178.761 598.711L180.191 595.15C182.278 589.88 184.336 584.951 186.337 580.422C184.25 579.824 182.22 579.169 180.219 578.456C178.218 577.744 176.189 576.975 174.216 576.177C172.244 575.38 170.243 574.582 168.499 573.728C166.755 572.873 164.754 572.018 162.982 571.078L155.235 589.224L158.094 590.563L160.953 591.931C161.396 592.169 161.733 592.566 161.896 593.042C161.995 593.276 162.046 593.528 162.046 593.782C162.046 594.037 161.995 594.289 161.896 594.523C161.795 594.783 161.638 595.018 161.435 595.21C161.233 595.402 160.99 595.547 160.724 595.634C160.234 595.806 159.699 595.806 159.209 595.634H159.066C157.208 594.665 155.35 593.754 153.349 592.785C151.348 591.817 149.547 591.105 147.632 590.335C145.716 589.566 143.801 588.883 141.914 588.227C140.028 587.572 138.055 587.002 136.197 586.461C135.932 586.364 135.691 586.213 135.489 586.016C135.287 585.82 135.129 585.583 135.025 585.322C134.925 585.083 134.874 584.826 134.874 584.567C134.874 584.308 134.925 584.051 135.025 583.812C135.193 583.338 135.543 582.949 135.997 582.729C136.458 582.504 136.983 582.443 137.484 582.559L140.342 583.413L143.201 584.268L162.296 538.945C160.266 537.977 158.266 536.923 156.236 535.783C156.017 535.668 155.823 535.511 155.666 535.32C155.509 535.129 155.392 534.909 155.321 534.672C155.148 534.166 155.183 533.612 155.419 533.132C155.655 532.651 156.072 532.283 156.579 532.108C157.05 531.936 157.566 531.936 158.037 532.108H158.265C160.667 533.504 163.096 534.786 165.526 535.926C167.956 537.065 170.414 538.148 172.873 539.116C174.388 539.714 175.731 540.284 177.332 540.797C178.933 541.31 180.191 541.822 181.82 542.25C182.294 542.437 182.681 542.792 182.906 543.247C183.028 543.467 183.103 543.709 183.128 543.958C183.152 544.208 183.126 544.46 183.049 544.7C182.964 544.972 182.824 545.223 182.637 545.439C182.45 545.654 182.221 545.829 181.963 545.953C181.475 546.137 180.936 546.137 180.448 545.953L177.589 545.098C176.675 544.814 175.731 544.529 174.731 544.187L164.897 566.976C166.613 567.888 168.413 568.799 170.329 569.626C172.244 570.452 174.159 571.306 176.046 572.075C177.932 572.845 180.105 573.642 182.135 574.383C184.164 575.123 186.194 575.75 188.281 576.348C189.51 573.5 190.71 570.964 191.825 568.6C192.94 566.236 193.998 564.071 194.941 562.162L197.428 557.234L199.143 553.958C198.171 553.53 197.256 553.103 196.285 552.647C195.374 552.208 194.487 551.723 193.626 551.195C193.213 550.948 192.899 550.565 192.74 550.112C192.569 549.662 192.569 549.166 192.74 548.716C192.84 548.445 192.999 548.199 193.207 547.996C193.415 547.794 193.666 547.641 193.941 547.548C194.411 547.376 194.928 547.376 195.398 547.548H195.684C196.599 548.118 197.552 548.631 198.543 549.087C199.486 549.542 200.458 549.97 201.401 550.368C202.976 551.002 204.59 551.535 206.232 551.964C208.004 552.415 209.798 552.776 211.606 553.046L212.035 553.217C212.468 553.389 212.83 553.7 213.064 554.1C213.154 554.687 213.022 555.286 212.693 555.781Z" fill="black" stroke="black" stroke-width="0.5" stroke-miterlimit="10"/>
<path d="M247.683 576.519C247.443 576.961 247.045 577.297 246.568 577.459C246.08 577.643 245.541 577.643 245.053 577.459L242.366 576.348L239.65 575.123L216.21 617.056L218.783 618.679L221.413 620.303C221.855 620.614 222.163 621.081 222.275 621.61C222.386 622.138 222.293 622.689 222.013 623.152C221.879 623.375 221.701 623.568 221.49 623.72C221.278 623.871 221.038 623.979 220.784 624.035C220.286 624.133 219.769 624.052 219.326 623.807H219.183C217.439 622.668 215.667 621.557 213.894 620.503C212.122 619.449 210.293 618.451 208.435 617.483C206.577 616.514 204.776 615.631 202.946 614.805C201.117 613.979 199.23 613.153 197.229 612.412C196.975 612.299 196.751 612.13 196.573 611.918C196.394 611.706 196.267 611.456 196.2 611.187C196.101 610.953 196.05 610.701 196.05 610.447C196.05 610.192 196.101 609.94 196.2 609.706C196.438 609.257 196.836 608.912 197.315 608.737C197.795 608.566 198.321 608.566 198.801 608.737L201.488 609.877L204.175 611.016L227.501 568.514C225.615 567.346 223.699 566.093 221.784 564.754C221.377 564.468 221.092 564.042 220.984 563.557C220.864 563.036 220.956 562.489 221.24 562.035C221.524 561.581 221.976 561.258 222.499 561.136C222.991 561.04 223.501 561.1 223.957 561.307H224.157C226.425 562.94 228.711 564.45 231.017 565.836C233.304 567.204 235.62 568.514 237.992 569.739C239.422 570.508 240.851 571.22 242.252 571.876C243.652 572.531 245.11 573.186 246.539 573.784H246.682C246.937 573.903 247.161 574.078 247.339 574.295C247.517 574.512 247.644 574.765 247.711 575.038C247.887 575.518 247.877 576.046 247.683 576.519Z" fill="black" stroke="black" stroke-width="0.5" stroke-miterlimit="10"/>
<path d="M290.846 614.349C290.835 614.444 290.835 614.54 290.846 614.634C290.858 614.748 290.858 614.862 290.846 614.976C290.565 615.45 290.114 615.802 289.585 615.96C289.055 616.118 288.485 616.072 287.988 615.831C287.618 615.654 287.324 615.351 287.159 614.976C286.962 614.569 286.892 614.113 286.959 613.666C287.13 612.64 287.33 611.558 287.559 610.418C287.816 609.279 288.074 608.168 288.359 607.085C288.645 606.003 288.931 604.977 289.188 604.037C289.446 603.097 289.703 602.299 289.932 601.644C288.56 601.018 287.073 600.305 285.329 599.451C283.586 598.596 281.813 597.685 279.869 596.602L256.2 638.706C258.059 639.76 259.831 640.871 261.46 641.982C261.912 642.244 262.241 642.674 262.375 643.178C262.478 643.661 262.407 644.166 262.175 644.602C262.047 644.859 261.867 645.085 261.645 645.267C261.423 645.449 261.166 645.581 260.888 645.656C260.418 645.831 259.901 645.831 259.431 645.656H259.231C257.487 644.46 255.714 643.32 253.914 642.295C252.113 641.269 250.34 640.272 248.511 639.446C246.681 638.62 244.823 637.595 243.022 636.598C241.221 635.601 239.335 634.974 237.305 634.29H237.105C236.859 634.168 236.644 633.991 236.475 633.774C236.307 633.557 236.19 633.305 236.133 633.037C235.928 632.534 235.928 631.972 236.133 631.47C236.361 631.03 236.75 630.693 237.219 630.53C237.688 630.344 238.209 630.344 238.677 630.53C240.564 631.242 242.394 632.011 244.137 632.837L267.377 590.42C265.462 589.309 263.661 588.284 262.003 587.287L257.544 584.438L255.829 586.432C255.171 587.23 254.457 588.085 253.685 588.968L251.312 591.674C250.512 592.585 249.74 593.44 248.968 594.209C248.661 594.53 248.261 594.749 247.825 594.836C247.467 594.875 247.105 594.82 246.776 594.676C246.446 594.533 246.16 594.305 245.946 594.017C245.732 593.729 245.597 593.39 245.556 593.034C245.514 592.677 245.567 592.317 245.709 591.987V591.731C245.76 591.642 245.828 591.565 245.91 591.503C246.91 590.477 247.968 589.309 249.054 588.056L252.141 584.467L254.514 581.618C255.143 580.849 255.486 580.479 255.486 580.45C255.783 580.086 256.197 579.835 256.658 579.738C257.115 579.649 257.59 579.719 258.001 579.937L258.259 580.08C259.373 580.877 260.774 581.76 262.432 582.786C264.09 583.812 265.891 584.866 267.863 585.977C269.836 587.087 271.865 588.255 273.981 589.395C276.096 590.534 278.183 591.674 280.241 592.756C282.757 594.067 285.101 595.235 287.245 596.289C289.389 597.343 291.247 598.169 292.733 598.824H292.876C293.286 599.056 293.607 599.417 293.791 599.85C293.96 600.29 293.96 600.777 293.791 601.217L293.591 601.872L293.105 603.496C292.876 604.18 292.647 604.977 292.419 605.86C292.19 606.743 291.904 607.683 291.675 608.709C291.447 609.735 291.189 610.675 290.961 611.558C290.732 612.441 291.075 613.438 290.846 614.349Z" fill="black" stroke="black" stroke-width="0.5" stroke-miterlimit="10"/>
<path d="M323.863 669.928C323.635 670.368 323.247 670.704 322.777 670.868C322.306 671.037 321.79 671.037 321.319 670.868C314.888 668.019 308.541 665.484 302.281 663.205C296.021 660.926 289.703 658.875 283.643 657.194H283.443C282.935 656.985 282.519 656.601 282.271 656.111C282.158 655.866 282.1 655.598 282.1 655.328C282.1 655.058 282.158 654.79 282.271 654.545C282.35 654.311 282.478 654.097 282.645 653.915C282.813 653.734 283.016 653.589 283.243 653.491C283.713 653.258 284.253 653.207 284.758 653.348L287.188 654.032L289.589 654.773L305.883 610.162C305.138 609.817 304.375 609.512 303.596 609.251L301.252 608.396C300.773 608.175 300.388 607.791 300.166 607.314C300.053 607.073 299.995 606.81 299.995 606.544C299.995 606.279 300.053 606.016 300.166 605.775C300.252 605.514 300.393 605.275 300.581 605.073C300.768 604.871 300.997 604.713 301.252 604.607C301.496 604.502 301.758 604.448 302.024 604.448C302.289 604.448 302.552 604.502 302.796 604.607C303.711 604.978 304.597 605.348 305.483 605.661L308.056 606.601C313.296 608.5 318.527 610.2 323.749 611.7C328.971 613.201 334.259 614.54 339.614 615.717L339.957 615.86C340.19 615.934 340.404 616.056 340.586 616.218C340.768 616.38 340.914 616.578 341.015 616.8C341.242 617.217 341.322 617.699 341.244 618.167L338.385 631.128V631.385C338.297 631.638 338.154 631.869 337.966 632.061C337.779 632.253 337.551 632.402 337.299 632.496C336.801 632.682 336.253 632.682 335.755 632.496C335.309 632.336 334.934 632.023 334.697 631.613C334.466 631.166 334.386 630.656 334.469 630.16L336.956 619.249C334.097 618.623 331.01 617.882 328.066 617.084C325.121 616.287 322.205 615.432 319.261 614.521L310.428 638.649L312.829 639.39L316.088 640.33L319.69 641.241C320.948 641.526 322.091 641.783 323.206 641.953L323.578 642.096C323.83 642.185 324.062 642.324 324.258 642.506C324.455 642.687 324.612 642.906 324.721 643.15C324.826 643.388 324.88 643.645 324.88 643.905C324.88 644.165 324.826 644.422 324.721 644.66C324.566 645.115 324.252 645.5 323.835 645.742C323.409 645.98 322.919 646.08 322.434 646.027C321.234 645.828 319.947 645.571 318.604 645.258L314.745 644.261L311.343 643.235L308.913 642.495L302.51 658.989L303.539 659.359C306.398 660.413 309.256 661.524 312.286 662.663C315.316 663.803 318.146 665.028 321.062 666.31L325.95 656.966C326.222 656.551 326.609 656.224 327.065 656.026C327.516 655.855 328.015 655.855 328.466 656.026C328.741 656.11 328.992 656.257 329.201 656.455C329.409 656.653 329.568 656.896 329.666 657.165C329.835 657.625 329.835 658.13 329.666 658.59V658.903L323.863 669.928Z" fill="black" stroke="black" stroke-width="0.5" stroke-miterlimit="10"/>
<path d="M369.429 662.179C368.469 662.065 367.515 661.904 366.571 661.694C365.675 661.506 364.796 661.249 363.941 660.925L362.168 673.118L365.027 673.716L368.086 674.314C368.575 674.448 369 674.751 369.286 675.169C369.589 675.568 369.722 676.069 369.658 676.565C369.633 676.84 369.545 677.107 369.402 677.344C369.258 677.58 369.062 677.782 368.829 677.932C368.403 678.224 367.886 678.356 367.371 678.302H367.199C365.17 677.846 363.112 677.448 361.082 677.106C359.053 676.764 356.966 676.479 354.908 676.223C352.849 675.966 350.82 675.795 348.819 675.653C346.818 675.511 344.76 675.425 342.73 675.397H342.53C342.259 675.374 341.996 675.294 341.76 675.161C341.523 675.029 341.317 674.847 341.158 674.627C340.983 674.437 340.852 674.211 340.773 673.965C340.694 673.719 340.669 673.459 340.7 673.203C340.763 672.694 341.009 672.226 341.393 671.885C341.777 671.544 342.273 671.355 342.787 671.351H345.646H348.504L355.136 623.465C353.679 623.499 352.227 623.642 350.791 623.892L349.276 624.177C349.021 624.225 348.759 624.225 348.504 624.177C348.228 624.15 347.962 624.062 347.724 623.919C347.487 623.776 347.285 623.582 347.132 623.351C346.805 622.919 346.652 622.38 346.703 621.841C346.758 621.447 346.916 621.074 347.161 620.759C347.433 620.432 347.804 620.203 348.219 620.104L349.705 619.819C350.62 619.648 351.935 619.505 353.65 619.363C355.365 619.221 357.452 619.192 359.967 619.192C362.483 619.192 365.399 619.449 368.715 619.819L370.487 620.047C371.087 620.047 371.687 620.218 372.288 620.332C374.5 620.668 376.687 621.153 378.834 621.784C380.913 622.371 382.925 623.173 384.837 624.177C386.656 625.1 388.364 626.228 389.925 627.539C391.425 628.792 392.717 630.273 393.756 631.926C394.802 633.618 395.547 635.478 395.957 637.424C396.421 639.605 396.508 641.85 396.214 644.061C395.975 646.188 395.376 648.259 394.442 650.186C393.571 651.96 392.423 653.585 391.04 655C389.673 656.387 388.125 657.584 386.438 658.561C384.712 659.542 382.88 660.325 380.978 660.897C379.06 661.471 377.086 661.834 375.089 661.979C373.214 662.232 371.318 662.299 369.429 662.179ZM392.298 643.833C392.564 641.933 392.467 640 392.012 638.136C391.609 636.513 390.912 634.978 389.954 633.606C389.022 632.25 387.861 631.065 386.523 630.103C385.143 629.076 383.658 628.198 382.093 627.482C380.464 626.756 378.782 626.156 377.062 625.687C375.318 625.231 373.603 624.861 371.888 624.576L369.172 624.263L364.427 656.937C365.227 657.222 366.056 657.478 366.971 657.706C367.886 657.934 368.886 658.077 369.829 658.219C372.457 658.576 375.12 658.576 377.748 658.219C380.168 657.833 382.5 657.023 384.637 655.826C386.667 654.675 388.408 653.077 389.725 651.154C391.188 648.967 392.082 646.451 392.326 643.833H392.298Z" fill="black" stroke="black" stroke-width="0.5" stroke-miterlimit="10"/>
<path d="M446.982 677.049H446.81H446.582C444.466 676.878 442.437 676.764 440.522 676.764C438.606 676.764 436.72 676.764 434.804 677.021C432.889 677.277 431.088 677.505 429.23 677.875C427.372 678.245 425.428 678.73 423.37 679.328C423.251 679.377 423.117 679.377 422.998 679.328C422.724 679.36 422.445 679.331 422.183 679.242C421.921 679.154 421.682 679.008 421.483 678.815C421.065 678.474 420.798 677.983 420.74 677.448C420.681 676.983 420.804 676.514 421.083 676.137C421.201 675.93 421.361 675.749 421.553 675.607C421.745 675.465 421.965 675.364 422.198 675.311L424.885 674.599C425.781 674.371 426.667 674.172 427.544 674.001L426.257 660.982L425.257 661.125H424.285C420.998 661.467 417.71 661.695 414.451 661.809C411.193 661.923 407.905 661.809 404.561 661.809C404.054 661.793 403.569 661.602 403.189 661.267C402.998 661.115 402.842 660.925 402.728 660.709C402.615 660.493 402.548 660.257 402.531 660.014C402.503 659.796 402.503 659.576 402.531 659.359C402.582 659.146 402.669 658.944 402.788 658.76C404.253 656.292 405.497 653.699 406.505 651.012C407.368 648.685 408.046 646.295 408.534 643.862C408.938 641.785 409.177 639.68 409.249 637.566C409.284 635.827 409.227 634.087 409.077 632.353C409.077 631.271 408.849 630.302 408.677 629.505C408.506 628.707 408.363 627.938 408.22 627.34C408.077 626.741 407.877 626.058 407.705 625.545C407.674 625.443 407.674 625.334 407.705 625.231C407.705 625.231 407.705 625.061 407.705 624.975C407.669 624.701 407.69 624.422 407.769 624.157C407.848 623.892 407.982 623.647 408.162 623.437C408.337 623.231 408.55 623.062 408.791 622.94C409.031 622.818 409.294 622.745 409.563 622.725C410.004 622.681 410.447 622.786 410.82 623.024C411.194 623.262 411.476 623.618 411.621 624.035C411.712 624.258 411.788 624.486 411.85 624.719C411.993 625.146 412.136 625.687 412.307 626.371C412.479 627.055 412.679 627.881 412.851 628.849C413.063 629.913 413.216 630.988 413.308 632.068C413.482 633.791 413.549 635.522 413.508 637.253C413.476 639.306 413.285 641.354 412.936 643.378C412.548 645.721 411.994 648.034 411.278 650.3C410.433 652.886 409.382 655.401 408.134 657.82C413.394 657.82 418.682 657.479 423.97 656.966L425.971 656.766L423.113 626.998C423.035 626.699 423.035 626.385 423.113 626.086C423.215 625.852 423.36 625.639 423.542 625.459C423.676 625.304 423.842 625.178 424.028 625.089L424.399 624.861L425.2 624.605C425.686 624.405 426.343 624.121 427.143 623.722C427.944 623.323 428.859 622.839 430.002 622.24C431.091 621.585 432.123 620.842 433.089 620.018C433.248 619.872 433.432 619.757 433.632 619.677C433.977 619.494 434.37 619.427 434.756 619.483C435.142 619.539 435.499 619.717 435.776 619.99C436.154 620.366 436.396 620.857 436.462 621.386L439.75 654.715L440.836 654.487L441.979 654.26L443.209 653.975C443.484 653.94 443.763 653.968 444.025 654.057C444.288 654.146 444.527 654.293 444.724 654.487C445.105 654.85 445.348 655.333 445.41 655.855C445.45 656.34 445.319 656.824 445.038 657.222C444.9 657.424 444.722 657.596 444.516 657.728C444.31 657.86 444.079 657.95 443.838 657.991L442.008 658.39L440.15 658.76L441.493 672.434H444.352C445.267 672.434 446.239 672.434 447.211 672.662C447.448 672.668 447.681 672.722 447.898 672.82C448.114 672.918 448.308 673.058 448.468 673.232C448.822 673.546 449.038 673.986 449.069 674.457C449.1 674.739 449.07 675.025 448.982 675.296C448.893 675.566 448.747 675.814 448.554 676.023C448.384 676.299 448.155 676.535 447.883 676.712C447.612 676.889 447.304 677.004 446.982 677.049Z" fill="black" stroke="black" stroke-width="0.5" stroke-miterlimit="10"/>
<path d="M502.18 601.474C502.31 601.891 502.31 602.338 502.18 602.756C502.07 603.178 501.818 603.55 501.466 603.81C500.665 604.322 499.894 604.835 499.122 605.291C498.35 605.747 497.578 606.231 496.749 606.658C498.75 610.305 500.522 613.894 502.095 617.455C503.667 621.016 504.953 624.576 506.297 628.166C508.012 633.009 509.47 637.766 510.699 642.409C511.928 647.053 513.014 651.639 513.986 656.168C514.056 656.684 513.945 657.207 513.672 657.65C513.509 657.915 513.286 658.139 513.02 658.303C512.755 658.467 512.454 658.567 512.143 658.595C511.832 658.623 511.518 658.577 511.228 658.463C510.937 658.348 510.678 658.167 510.47 657.935C509.212 656.51 507.612 654.801 505.468 652.778C503.324 650.756 501.151 648.619 498.693 646.312L490.889 639.247L482.914 632.211L475.653 625.887L469.936 620.873L483.885 663.831L486.744 663.062L489.746 662.236C490.243 662.138 490.76 662.218 491.203 662.464C491.662 662.692 492.011 663.091 492.175 663.575C492.273 663.835 492.311 664.113 492.286 664.389C492.261 664.665 492.175 664.932 492.032 665.17C491.77 665.611 491.367 665.951 490.889 666.139H490.717C488.688 666.623 486.687 667.164 484.686 667.763C482.685 668.361 480.712 668.987 478.769 669.671C476.825 670.355 474.91 671.067 473.052 671.836C471.193 672.605 469.307 673.431 467.334 674.286H467.163C466.916 674.399 466.648 674.457 466.377 674.457C466.105 674.457 465.837 674.399 465.591 674.286C465.352 674.188 465.137 674.041 464.96 673.854C464.783 673.668 464.647 673.446 464.562 673.204C464.376 672.727 464.376 672.199 464.562 671.722C464.761 671.248 465.127 670.864 465.591 670.64L468.249 669.443L471.165 668.332L455.643 621.671C453.47 622.269 451.241 622.782 448.982 623.266C448.49 623.357 447.982 623.265 447.553 623.01C447.115 622.746 446.789 622.33 446.638 621.842C446.523 621.584 446.478 621.301 446.508 621.021C446.538 620.741 446.642 620.474 446.81 620.246C447.061 619.814 447.455 619.482 447.925 619.306H448.125C450.983 618.737 453.556 618.081 456.129 617.369C458.701 616.657 461.274 615.888 463.79 615.005L466.648 614.065H466.877C467.028 614.033 467.184 614.033 467.334 614.065C467.532 614.025 467.737 614.025 467.935 614.065C468.184 614.132 468.417 614.248 468.621 614.407L470.164 615.717L473.537 618.566L478.34 622.696L484.057 627.739L490.403 633.436L496.863 639.133C499.007 641.07 501.066 642.979 503.067 644.831C505.068 646.682 506.868 648.391 508.526 650.015C507.697 646.711 506.811 643.349 505.868 639.959C504.925 636.569 503.838 633.151 502.609 629.676C501.38 626.2 499.979 622.696 498.436 619.164C496.892 615.632 495.12 612.071 493.176 608.453C492.888 608.621 492.581 608.755 492.261 608.852L491.318 609.194C489.85 609.706 488.307 610.162 486.687 610.561C486.443 610.627 486.188 610.643 485.938 610.609C485.687 610.574 485.446 610.49 485.229 610.362C484.783 610.112 484.447 609.705 484.286 609.222C484.173 608.976 484.114 608.709 484.114 608.439C484.114 608.168 484.173 607.901 484.286 607.655C484.522 607.181 484.931 606.814 485.429 606.63H485.658C486.372 606.487 487.087 606.316 487.773 606.117L489.831 605.462C491.508 604.885 493.142 604.19 494.72 603.382C496.242 602.604 497.712 601.729 499.122 600.762C499.266 600.647 499.431 600.56 499.608 600.505C499.849 600.393 500.113 600.335 500.379 600.335C500.646 600.335 500.91 600.393 501.151 600.505C501.603 600.69 501.969 601.035 502.18 601.474Z" fill="black" stroke="black" stroke-width="0.5" stroke-miterlimit="10"/>
<path d="M556.208 589.395C556.251 589.483 556.298 589.569 556.351 589.651C556.449 589.738 556.528 589.845 556.58 589.965C556.694 590.21 556.754 590.478 556.754 590.748C556.754 591.019 556.694 591.286 556.58 591.532C556.517 591.79 556.397 592.032 556.229 592.239C556.061 592.446 555.849 592.613 555.608 592.728C555.24 592.923 554.818 592.993 554.407 592.927C553.975 592.861 553.576 592.662 553.264 592.358C552.492 591.646 551.72 590.848 550.891 589.993C550.062 589.139 549.319 588.284 548.604 587.43C547.889 586.575 547.203 585.777 546.546 585.037C545.888 584.296 545.403 583.641 545.002 583.071C543.716 583.84 542.144 584.695 540.572 585.606L535.169 588.455L556.522 631.613C558.466 630.673 560.353 629.846 562.24 629.134C562.698 628.92 563.224 628.895 563.701 629.066C564.177 629.237 564.567 629.589 564.784 630.046C564.935 630.291 565.03 630.566 565.059 630.852C565.089 631.138 565.053 631.428 564.955 631.698C564.789 632.179 564.454 632.584 564.012 632.838H563.812C561.811 633.578 559.896 634.404 558.095 635.259C556.294 636.114 554.378 637.054 552.549 638.108C550.719 639.162 548.919 640.073 547.203 640.956C545.488 641.839 543.773 643.064 542.115 644.204H541.915C541.66 644.323 541.382 644.385 541.1 644.385C540.819 644.385 540.541 644.323 540.286 644.204C539.777 644.029 539.349 643.674 539.085 643.207C538.899 642.74 538.899 642.22 539.085 641.754C539.199 641.272 539.496 640.853 539.914 640.586C541.601 639.446 543.259 638.392 544.917 637.424L523.134 594.266L517.417 596.887C515.645 597.685 514.044 598.397 512.615 598.995L513.329 601.53C513.615 602.528 513.901 603.582 514.187 604.721C514.473 605.86 514.759 607.028 515.073 608.196C515.387 609.364 515.616 610.504 515.845 611.558C515.972 611.986 515.972 612.441 515.845 612.868C515.681 613.274 515.377 613.608 514.987 613.808C514.735 613.92 514.463 613.977 514.187 613.977C513.911 613.977 513.638 613.92 513.386 613.808C512.877 613.634 512.45 613.279 512.186 612.811L512.043 612.555C512.03 612.46 512.03 612.365 512.043 612.27C511.757 610.874 511.385 609.421 510.985 607.712L509.785 603.154C509.384 601.758 509.07 600.562 508.813 599.622C508.555 598.682 508.413 598.198 508.384 598.169C508.222 597.727 508.222 597.243 508.384 596.802C508.56 596.379 508.886 596.034 509.299 595.833L509.585 595.691C510.842 595.206 512.443 594.58 514.158 593.811L519.875 591.161L526.193 588.113C528.365 587.031 530.481 585.948 532.51 584.866C535.026 583.555 537.341 582.302 539.428 581.134C541.515 579.966 543.259 578.94 544.602 578.086H544.745C545.173 577.887 545.653 577.827 546.117 577.915C546.59 577.999 547.011 578.265 547.289 578.656L547.718 579.168C547.975 579.51 548.318 579.966 548.776 580.507C549.233 581.048 549.748 581.704 550.348 582.416C550.948 583.128 551.577 583.869 552.235 584.638L554.293 586.888C554.883 587.759 555.523 588.596 556.208 589.395Z" fill="black" stroke="black" stroke-width="0.5" stroke-miterlimit="10"/>
<path d="M611.464 544.898C611.761 545.427 611.881 546.035 611.807 546.636C611.713 547.098 611.473 547.518 611.121 547.833C609.977 548.744 608.834 549.542 607.719 550.282C606.604 551.023 605.489 551.764 604.346 552.419C604.746 553.53 605.404 555.268 606.376 557.86C607.348 560.452 608.605 563.557 610.12 567.061C611.635 570.565 613.408 574.753 615.437 579.282C617.467 583.811 619.725 588.654 622.269 593.782L623.956 597.2C625.099 596.63 626.271 596.089 627.472 595.576C628.644 595.092 629.873 594.579 631.159 594.095C631.676 593.906 632.244 593.906 632.76 594.095C633.227 594.338 633.599 594.729 633.818 595.206C633.917 595.441 633.968 595.692 633.968 595.947C633.968 596.201 633.917 596.453 633.818 596.687C633.619 597.161 633.253 597.546 632.789 597.77H632.646C631.274 598.311 629.787 598.852 628.587 599.422C627.386 599.992 625.985 600.562 624.699 601.188C623.413 601.815 622.212 602.442 621.012 603.125L617.495 605.177H617.238C616.988 605.295 616.715 605.357 616.438 605.357C616.161 605.357 615.887 605.295 615.637 605.177C615.14 605.007 614.729 604.649 614.494 604.179C614.309 603.703 614.309 603.175 614.494 602.698C614.637 602.215 614.939 601.794 615.352 601.502L617.896 600.02L620.44 598.596L618.753 595.149C616.238 590.041 613.951 585.226 611.893 580.706C610.063 581.846 608.234 582.9 606.347 583.925C604.46 584.951 602.545 585.891 600.63 586.774C598.715 587.657 596.771 588.626 594.913 589.452C593.055 590.278 591.111 591.076 589.196 591.759L597.485 609.649L600.344 608.538L603.203 607.399C603.681 607.214 604.211 607.214 604.689 607.399C605.165 607.566 605.555 607.914 605.775 608.367C605.901 608.619 605.967 608.897 605.967 609.179C605.967 609.461 605.901 609.739 605.775 609.991C605.587 610.469 605.232 610.863 604.775 611.102C602.802 611.842 600.887 612.612 599.058 613.409C597.228 614.207 595.256 615.09 593.341 616.002C591.425 616.913 589.71 617.853 587.938 618.85C586.166 619.847 584.422 620.873 582.707 621.955C582.45 622.067 582.172 622.125 581.892 622.125C581.611 622.125 581.334 622.067 581.077 621.955C580.584 621.778 580.176 621.422 579.934 620.958C579.748 620.492 579.748 619.972 579.934 619.505C580.061 619.015 580.367 618.588 580.791 618.309L583.307 616.799L585.822 615.318L564.326 571.477C562.239 572.331 560.095 573.129 557.923 573.841C557.455 574.027 556.933 574.027 556.465 573.841C556.037 573.646 555.685 573.315 555.464 572.901C555.324 572.638 555.251 572.344 555.251 572.046C555.251 571.748 555.324 571.455 555.464 571.192C555.652 570.722 555.995 570.33 556.436 570.081H556.636C559.323 569.226 561.896 568.315 564.383 567.232C566.87 566.15 569.3 565.096 571.673 563.928C573.13 563.215 574.531 562.503 575.932 561.763C577.332 561.022 578.79 560.253 579.991 559.427C580.469 559.242 580.999 559.242 581.477 559.427C581.966 559.547 582.387 559.854 582.649 560.281C582.92 560.788 582.991 561.377 582.85 561.934C582.689 562.424 582.367 562.846 581.935 563.13L579.419 564.611L576.847 566.093L587.28 588.711C589.11 588.056 590.996 587.344 592.997 586.489C594.998 585.635 596.799 584.78 598.715 583.868C600.63 582.957 602.602 581.903 604.432 581.02C606.261 580.137 608.205 578.912 610.149 577.772C608.891 574.924 607.748 572.388 606.747 569.938C605.747 567.489 604.832 565.323 604.06 563.329C603.288 561.335 602.602 559.655 602.031 558.202C601.459 556.749 601.059 555.609 600.744 554.726L597.886 555.923C596.952 556.292 595.998 556.605 595.027 556.863C594.805 556.955 594.567 557.002 594.327 557.002C594.086 557.002 593.848 556.955 593.626 556.863C593.176 556.676 592.81 556.331 592.597 555.894C592.471 555.637 592.405 555.355 592.405 555.068C592.405 554.782 592.471 554.499 592.597 554.242C592.786 553.781 593.13 553.398 593.569 553.16H593.855C594.83 552.894 595.785 552.561 596.714 552.163C597.686 551.783 598.638 551.355 599.572 550.881C601.085 550.127 602.555 549.29 603.974 548.374C605.513 547.378 606.993 546.294 608.405 545.126L608.834 544.927C609.244 544.704 609.724 544.642 610.178 544.756C610.611 544.676 611.059 544.725 611.464 544.898Z" fill="black" stroke="black" stroke-width="0.5" stroke-miterlimit="10"/>
<path d="M673.438 561.535C674.249 563.923 674.693 566.42 674.753 568.941C674.798 571.118 674.509 573.289 673.895 575.379C673.336 577.313 672.477 579.149 671.351 580.82C670.232 582.437 668.916 583.911 667.435 585.207C665.988 586.506 664.396 587.634 662.69 588.569C660.993 589.493 659.213 590.256 657.373 590.848C655.18 591.569 652.878 591.906 650.569 591.845C648.407 591.797 646.273 591.343 644.28 590.506C642.303 589.64 640.53 588.368 639.078 586.774C637.494 585 636.322 582.899 635.648 580.621C635.447 579.994 635.276 579.367 635.105 578.684C634.942 577.98 634.827 577.266 634.761 576.547C634.713 576.312 634.714 576.069 634.763 575.834C634.812 575.599 634.909 575.376 635.047 575.18C635.296 574.775 635.681 574.472 636.134 574.325C636.404 574.223 636.695 574.185 636.983 574.215C637.271 574.245 637.548 574.341 637.792 574.496C638.226 574.738 638.553 575.135 638.706 575.607C638.72 575.673 638.72 575.741 638.706 575.807C638.695 575.873 638.695 575.94 638.706 576.006L639.049 577.772C639.162 578.349 639.305 578.92 639.478 579.481C639.929 580.933 640.635 582.293 641.565 583.498C642.429 584.632 643.495 585.598 644.709 586.347C645.932 587.039 647.284 587.476 648.683 587.629C650.207 587.761 651.743 587.586 653.199 587.116C654.892 586.571 656.492 585.774 657.944 584.751C659.343 583.745 660.488 582.428 661.289 580.906C662.148 579.226 662.626 577.378 662.69 575.493C662.729 573.08 662.342 570.679 661.546 568.4C661.117 566.917 660.398 565.532 659.431 564.326C658.572 563.208 657.528 562.245 656.344 561.478C655.175 560.743 653.903 560.187 652.57 559.825C651.243 559.469 649.883 559.249 648.511 559.17C647.19 559.042 645.859 559.042 644.538 559.17C643.327 559.324 642.131 559.581 640.965 559.939L640.164 560.167C639.908 560.269 639.631 560.307 639.357 560.277C639.083 560.247 638.82 560.151 638.592 559.996C638.146 559.76 637.809 559.362 637.649 558.885C637.543 558.6 637.506 558.295 637.541 557.993C637.575 557.691 637.681 557.401 637.849 557.148L651.713 535.84L628.387 543.389C628.135 543.502 627.862 543.56 627.586 543.56C627.31 543.56 627.038 543.502 626.786 543.389C626.553 543.276 626.347 543.117 626.179 542.921C626.012 542.725 625.888 542.496 625.814 542.249C625.6 541.729 625.6 541.146 625.814 540.625C626.073 540.136 626.514 539.768 627.043 539.6L655.629 530.57C655.894 530.483 656.175 530.456 656.452 530.49C656.729 530.525 656.994 530.62 657.23 530.769C657.473 530.882 657.69 531.045 657.867 531.246C658.044 531.447 658.178 531.682 658.259 531.937C658.347 532.217 658.372 532.512 658.333 532.803C658.293 533.093 658.19 533.371 658.03 533.618L649.312 546.494C650.769 546.494 652.17 546.351 653.828 546.494C655.389 546.548 656.94 546.758 658.459 547.12C660.032 547.472 661.557 548.008 663.004 548.716C664.526 549.459 665.932 550.419 667.178 551.564C668.565 552.813 669.768 554.252 670.751 555.837C671.881 557.617 672.784 559.531 673.438 561.535Z" fill="black" stroke="black" stroke-width="0.5" stroke-miterlimit="10"/>
<path d="M739.871 560.339C739.871 560.339 739.871 560.51 739.871 560.738C739.895 561.06 739.895 561.384 739.871 561.706C739.996 563.686 739.773 565.671 739.214 567.574C738.706 569.299 737.861 570.906 736.727 572.303C735.602 573.665 734.199 574.772 732.611 575.551C730.886 576.378 729.006 576.834 727.094 576.89C725.378 576.952 723.665 576.711 722.034 576.177C719.22 575.277 716.819 573.409 715.259 570.907C714.454 569.645 713.793 568.298 713.287 566.891C712.762 565.419 712.37 563.903 712.115 562.361C711.835 560.807 711.654 559.238 711.571 557.661C711.571 557.205 711.571 556.749 711.571 556.294C711.571 555.838 711.571 555.411 711.571 555.069C710.409 555.069 709.266 555.069 708.141 555.069L704.911 554.841L705.311 575.01C705.34 575.281 705.306 575.556 705.212 575.813C705.118 576.07 704.966 576.301 704.768 576.491C704.382 576.859 703.873 577.072 703.339 577.089H701.738L697.793 577.374C696.192 577.374 694.391 577.687 692.448 577.915C690.504 578.143 688.617 578.399 686.73 578.713H686.473C686.197 578.736 685.918 578.699 685.657 578.606C685.396 578.512 685.157 578.364 684.958 578.172C684.764 578.006 684.607 577.801 684.499 577.57C684.391 577.339 684.333 577.088 684.329 576.833C684.297 576.335 684.439 575.842 684.729 575.437C685.039 575.034 685.487 574.76 685.987 574.668L688.846 574.212L691.704 573.842L690.332 525.898C688.417 526.297 686.988 526.639 686.016 526.924L684.444 527.351C684.297 527.473 684.118 527.552 683.929 527.579C683.377 527.595 682.842 527.395 682.436 527.022C682.03 526.65 681.786 526.134 681.757 525.585C681.727 525.154 681.837 524.724 682.071 524.36C682.335 524.013 682.692 523.747 683.1 523.591L684.729 523.05C686.192 522.59 687.681 522.219 689.189 521.939C691.161 521.54 693.62 521.112 696.564 520.714C699.508 520.315 702.967 520.03 706.941 519.831C709.485 519.831 711.972 519.831 714.373 520.001C716.644 520.107 718.907 520.355 721.148 520.742C723.147 521.102 725.109 521.646 727.008 522.366C728.723 523.024 730.302 523.989 731.667 525.215C733.027 526.424 734.109 527.91 734.84 529.573C735.661 531.524 736.107 533.611 736.155 535.726C736.262 537.542 736.059 539.362 735.555 541.11C734.622 544.498 732.617 547.495 729.838 549.656C728.39 550.72 726.803 551.583 725.121 552.22C725.121 552.818 725.121 553.445 725.121 554.072C725.121 554.698 725.121 555.325 725.121 555.98C725.121 556.636 725.121 557.291 725.264 558.259C725.407 559.228 725.464 560.31 725.636 561.478C725.788 562.677 726.008 563.865 726.293 565.039C726.547 566.16 726.901 567.257 727.351 568.315C727.709 569.203 728.232 570.015 728.894 570.708C729.169 570.988 729.499 571.208 729.863 571.355C730.227 571.502 730.617 571.573 731.01 571.563C731.49 571.55 731.962 571.437 732.395 571.23C732.828 571.024 733.213 570.73 733.525 570.366C734.201 569.602 734.716 568.711 735.04 567.745C735.406 566.732 735.656 565.681 735.784 564.612C735.848 563.72 735.848 562.825 735.784 561.934C735.805 561.697 735.805 561.459 735.784 561.222C735.77 561.051 735.77 560.88 735.784 560.709C735.761 560.44 735.801 560.168 735.9 559.916C735.999 559.665 736.155 559.439 736.355 559.256C736.72 558.87 737.219 558.637 737.751 558.605C738.282 558.573 738.805 558.745 739.214 559.085C739.573 559.414 739.806 559.857 739.871 560.339ZM732.182 536.04C732.14 534.404 731.761 532.794 731.067 531.311C730.417 530.007 729.502 528.853 728.38 527.921C727.18 526.956 725.827 526.195 724.378 525.67C722.747 525.08 721.062 524.65 719.347 524.388C717.455 524.096 715.544 523.934 713.63 523.904C711.571 523.904 709.456 523.904 707.312 523.904H705.683C705.217 523.858 704.748 523.858 704.282 523.904L704.854 550.397C705.934 550.546 707.022 550.631 708.113 550.653C709.285 550.653 710.514 550.653 711.772 550.653C713.029 550.653 714.887 550.397 716.517 550.141C718.133 549.885 719.728 549.514 721.291 549.03C722.801 548.531 724.264 547.902 725.664 547.149C727.001 546.397 728.208 545.435 729.237 544.301C730.249 543.216 731.045 541.95 731.582 540.569C732.037 539.105 732.212 537.568 732.096 536.04H732.182Z" fill="black" stroke="black" stroke-width="0.5" stroke-miterlimit="10"/>
</svg>
